HIERARCHY
ROOT Pelvis
{
	OFFSET 0.000000 0.000000 0.000000
	CHANNELS 6 Xposition Yposition Zposition Zrotation Yrotation Xrotation 
	JOINT Left_hip
	{
		OFFSET 0.076090 -0.089427 -0.010735
		CHANNELS 3 Zrotation Yrotation Xrotation
		JOINT Left_knee
		{
			OFFSET 0.030200 -0.359518 -0.003501
			CHANNELS 3 Zrotation Yrotation Xrotation
			JOINT Left_ankle
			{
				OFFSET -0.011005 -0.371022 -0.045888
				CHANNELS 3 Zrotation Yrotation Xrotation
				JOINT Left_foot
				{
					OFFSET 0.023930 -0.052103 0.111084
					CHANNELS 3 Zrotation Yrotation Xrotation
					End Site
					{
						OFFSET 0.000000 0.000000 0.000000
					}
				}
			}
		}
	}
	JOINT Right_hip
	{
		OFFSET -0.073836 -0.088112 -0.007709
		CHANNELS 3 Zrotation Yrotation Xrotation
		JOINT Right_knee
		{
			OFFSET -0.035715 -0.367809 -0.006536
			CHANNELS 3 Zrotation Yrotation Xrotation
			JOINT Right_ankle
			{
				OFFSET 0.013718 -0.371958 -0.043815
				CHANNELS 3 Zrotation Yrotation Xrotation
				JOINT Right_foot
				{
					OFFSET -0.021936 -0.046387 0.114542
					CHANNELS 3 Zrotation Yrotation Xrotation
					End Site
					{
						OFFSET 0.000000 0.000000 0.000000
					}
				}
			}
		}
	}
	JOINT Spine1
	{
		OFFSET -0.001865 0.102064 -0.019455
		CHANNELS 3 Zrotation Yrotation Xrotation
		JOINT Spine2
		{
			OFFSET 0.003082 0.129260 -0.001938
			CHANNELS 3 Zrotation Yrotation Xrotation
			JOINT Spine3
			{
				OFFSET 0.001104 0.048093 0.026561
				CHANNELS 3 Zrotation Yrotation Xrotation
				JOINT Neck
				{
					OFFSET -0.002010 0.204222 -0.047183
					CHANNELS 3 Zrotation Yrotation Xrotation
					JOINT Head
					{
						OFFSET 0.005050 0.063649 0.048489
						CHANNELS 3 Zrotation Yrotation Xrotation
						End Site
						{
							OFFSET 0.000000 0.000000 0.000000
						}
					}
				}
				JOINT Left_collar
				{
					OFFSET 0.072979 0.114065 -0.031633
					CHANNELS 3 Zrotation Yrotation Xrotation
					JOINT Left_shoulder
					{
						OFFSET 0.083419 0.032092 -0.006530
						CHANNELS 3 Zrotation Yrotation Xrotation
						JOINT Left_elbow
						{
							OFFSET 0.239393 -0.012014 -0.025060
							CHANNELS 3 Zrotation Yrotation Xrotation
							JOINT Left_wrist
							{
								OFFSET 0.227297 0.008116 0.000384
								CHANNELS 3 Zrotation Yrotation Xrotation
								JOINT Left_palm
								{
									OFFSET 0.074607 -0.009248 -0.012277
									CHANNELS 3 Zrotation Yrotation Xrotation
									End Site
									{
										OFFSET 0.000000 0.000000 0.000000
									}
								}
							}
						}
					}
				}
				JOINT Right_collar
				{
					OFFSET -0.074980 0.111880 -0.037894
					CHANNELS 3 Zrotation Yrotation Xrotation
					JOINT Right_shoulder
					{
						OFFSET -0.087565 0.034353 -0.009323
						CHANNELS 3 Zrotation Yrotation Xrotation
						JOINT Right_elbow
						{
							OFFSET -0.236838 -0.013719 -0.019794
							CHANNELS 3 Zrotation Yrotation Xrotation
							JOINT Right_wrist
							{
								OFFSET -0.235053 0.006433 -0.003853
								CHANNELS 3 Zrotation Yrotation Xrotation
								JOINT Right_palm
								{
									OFFSET -0.075499 -0.006894 -0.009792
									CHANNELS 3 Zrotation Yrotation Xrotation
									End Site
									{
										OFFSET 0.000000 0.000000 0.000000
									}
								}
							}
						}
					}
				}
			}
		}
	}
}
MOTION
Frames: 5
Frame Time: 0.100000
0.000000 0.000000 0.000000 175.515103 24.106117 -14.073552 1.769097 0.194585 7.205634 -2.783444 -9.310137 -7.107899 0.706111 7.360522 -5.262277 1.432349 7.551379 -3.590112 2.265766 -0.415852 7.872413 2.729599 6.123117 -6.136598 3.088359 -10.992645 -9.554289 -5.374138 6.067177 6.203343 1.388057 0.992766 2.231308 1.496575 -2.784046 1.601836 0.982585 -2.106481 1.314641 3.162102 2.657362 -9.417092 -0.471274 -3.880473 2.601114 -29.838980 -2.580323 4.328481 -53.997434 -7.609901 11.334528 1.190895 -13.736732 13.684001 -8.481120 -1.456580 0.326774 -9.749702 -4.689311 -11.755772 28.912424 4.515225 4.100869 52.232306 2.590270 15.168514 -5.084903 14.325566 0.864168 7.789908 -1.234923 -3.162168 11.899254 7.328211 -6.680310 
0.001804 -0.000031 0.000662 175.768517 23.841041 -14.220534 1.700842 0.360303 7.528016 -2.725957 -9.257010 -7.148951 0.735339 7.431962 -5.158050 1.341551 7.569393 -3.837470 2.233979 -0.351931 8.039370 2.702656 6.301557 -5.975684 2.990882 -10.988243 -9.709981 -5.152958 6.213985 6.308299 1.581964 0.727933 2.048497 1.545478 -2.955399 1.660700 0.878657 -2.343879 1.464437 2.443201 3.679585 -8.294459 -1.545448 -2.721443 3.665794 -30.052109 -2.428525 4.326821 -53.801654 -7.956046 11.303850 1.389993 -13.705027 13.659998 -8.440062 -1.231386 0.623119 -9.932980 -4.769895 -11.752014 29.317324 3.814923 4.073065 51.739553 2.516940 14.899938 -5.505725 13.716445 -0.146882 7.653339 -1.324680 -3.233335 12.173215 7.382664 -6.712775 
0.004075 -0.000152 0.001589 176.109998 23.625771 -14.391192 1.619977 0.446520 7.865788 -2.712790 -9.195116 -7.091343 0.756433 7.494754 -5.019753 1.212554 7.544911 -4.188460 2.117541 -0.307299 8.346111 2.718756 6.535232 -5.946836 2.953712 -10.986486 -9.829269 -5.005201 6.483754 6.414076 1.850877 0.360827 1.814763 1.559407 -3.199421 1.694051 0.732754 -2.632529 1.646220 1.304323 5.448985 -6.785542 -3.002658 -0.741317 5.096643 -30.154611 -2.305697 4.390275 -53.498271 -8.466209 11.202282 1.549585 -13.678029 13.516301 -8.511446 -1.121252 0.562319 -10.093430 -4.843592 -11.570463 29.813752 2.931453 4.215115 51.225256 2.358761 14.610540 -5.855113 12.548198 -1.309342 7.525994 -1.449400 -3.490859 12.507036 7.432307 -6.728988 
0.007739 -0.000058 0.002542 176.531921 23.381470 -14.369025 1.476054 0.520572 8.012754 -2.586928 -8.980110 -7.071206 0.666831 7.613745 -4.890396 1.131991 7.317675 -4.591036 1.964310 -0.286214 8.401450 2.802239 6.695916 -5.841813 3.077335 -10.812144 -10.002929 -4.887254 6.719088 6.495382 2.144100 -0.007294 1.704653 1.608101 -3.305113 1.437492 0.663614 -2.901973 1.840696 -0.316314 8.060932 -5.624828 -5.008362 1.907270 6.640224 -30.159126 -1.761811 4.241842 -53.291311 -8.974924 11.113674 1.957830 -14.022538 13.271378 -8.417623 -1.236660 0.353978 -10.221866 -4.933842 -11.157857 30.637437 1.649083 4.246190 50.297086 2.355610 13.939215 -6.615077 9.742781 -3.451056 7.075007 -1.577743 -3.555406 12.887987 7.448273 -6.761661 
0.011411 -0.000151 0.004122 177.057952 23.502278 -14.436575 1.299436 0.765955 7.906004 -2.633413 -8.766065 -6.225953 0.339707 7.488076 -5.142917 0.988784 6.648811 -5.005969 1.360337 -0.520810 8.431651 3.350521 6.489559 -5.198260 3.260283 -9.929522 -10.624264 -4.474192 6.386578 6.837156 2.829884 -0.588343 2.152199 1.703348 -3.480195 1.084546 0.722059 -3.237920 1.858228 -3.733233 11.728111 -5.281688 -8.539611 5.704816 7.191067 -29.750841 -0.759631 3.990988 -53.570746 -8.888091 10.975496 2.700786 -15.211565 12.919006 -8.576334 -1.822277 -1.129976 -10.246635 -4.820516 -10.310239 31.382321 -0.036963 4.017330 47.597728 3.151142 11.572524 -7.524037 5.253978 -8.435311 6.574878 -1.748499 -4.781376 13.358004 7.272140 -6.653214 
